<svg id="eNIDmsztfZ61" xmlns="http://www.w3.org/2000/svg" xmlns:xlink="http://www.w3.org/1999/xlink" viewBox="0 0 300 300" shape-rendering="geometricPrecision" text-rendering="geometricPrecision"><defs><radialGradient id="eNIDmsztfZ63-fill" cx="0" cy="0" r="0.5" spreadMethod="pad" gradientUnits="objectBoundingBox" gradientTransform="translate(0.5 0.5)"><stop id="eNIDmsztfZ63-fill-0" offset="0%" stop-color="#5a78b7"/><stop id="eNIDmsztfZ63-fill-1" offset="100%" stop-color="#3f72b8"/></radialGradient><radialGradient id="eNIDmsztfZ64-fill" cx="0" cy="0" r="0.6176" spreadMethod="pad" gradientUnits="objectBoundingBox" gradientTransform="translate(0.5 0.5)"><stop id="eNIDmsztfZ64-fill-0" offset="0%" stop-color="#fa9257"/><stop id="eNIDmsztfZ64-fill-1" offset="100%" stop-color="#faba45"/></radialGradient></defs><g transform="matrix(.05 0 0-.05 0 300)"><path d="M4240,5661c0-11,29-35,65-53c148-76,418-290,615-487c828-831,1067-2095,578-3065C4922,912,3399,406,2230,971c-919,444-1237,1225-956,2349c11,46,9,47-22,21-190-156-289-929-176-1361C1349,942,2476,313,3664,536C5096,805,5947,1771,5949,3130c2,798-223,1364-756,1906-300,307-953,734-953,625ZM2633,5380c-749-76-1344-336-1817-796C-245,3555,-194,1782,927,732c278-260,853-605,853-512c0,11-8,20-19,20-54,0-419,275-608,459C-594,2397,408,5141,2775,5140c1418,0,2339-1115,2008-2430-51-204-27-230,55-60c211,436,212,1081,3,1541-347,764-1307,1281-2208,1189Zm-147-561C1593,4680,905,3959,759,3008c-15-93-15.32418-183.98274-9.72418-219.58274c0,0,2.01546-20.37918,6.4-32.8c2.03642-5.7689,4.2-23.6,11.2-23.6C775.27582,2767.53857,785,2799.83912,785,2800c238,892,630,1402,1275,1657c1187,471,2521-390,2310-1490-139-727-996-1289-1645-1077-76,25-52-24,45-90c739-508,1801,146,1932,1188c133,1057-1027,2015-2216,1831Zm-139-619c-480-141-880-609-1006-1176C1055,1741,2606,648,3965,1175c704,274,1242,998,1308,1763c16,180-23,193-67,21-159-625-498-1123-950-1395C2750,660,938,2106,1891,3451c279,394,645,564,1173,545c271-10,282-7,211,58-183,168-622,237-928,146Z" fill="url(#eNIDmsztfZ63-fill)"/><path d="M2856.61904,3532c-257-95-392-285-393-552-2-400,417.02842-662.82682,789-522c13.69438,6.05713,24.31571,15.29728,37.03845,23.19139c23.58107-15.44198,51.77579-24.4212,82.06772-24.4212c82.84271,0,150,67.15729,150,150c0,17.39725-2.96173,34.10275-8.40849,49.6398c8.11791,24.68891,20.1054,54.54654,33.30233,82.59001c190.45481,458.17094-212.87751,926.97926-690,793h-.00001Zm381-115c213-101,327-391,237-605-16.51818-39.23067-26.44413-60.19529-45.69871-66.5196-17.62611,7.27582-36.94186,11.28979-57.19512,11.28979-82.84271,0-150-67.15729-150-150c0-20.42515,4.08239-39.8968,11.47574-57.64352-81.70133-96.20415-385.58933-55.27146-541.58191,99.87333-387,386,50,1001,546,768ZM2900,3827c-27-5-105.13362-20.74882-168.13362-42.74882-67.03147-23.62061-93.84244-38.82068-117.401-34.65888-32.37439,31.23437-76.4254,50.44628-124.9636,50.44628-99.41125,0-180-80.58875-180-180c0-33.84949,9.34346-65.5167,25.59199-92.56326-3.24104-32.7648-23.78351-74.54331-65.09377-156.47533-136-268-139-536-9-800c254-517,979-633,1390-223c586,586,67,1609-751,1479v.00001Zm446.92092-133.79452C3856.92092,3455.20548,3974,2774,3569,2401c-649-598-1636,155-1231,939c42.43445,81.7256,50.44008,108.38466,83.94993,113.14371c20.85877-8.45101,43.66179-13.10513,67.55185-13.10513c99.41125,0,180,80.58875,180,180c0,14.71189-1.76498,29.01154-5.09475,42.69877c22.78623,31.52778,114.52735,77.14837,224.82287,91.56507c101.06202,24.91902,331.69102-2.09694,457.69102-61.09694ZM2185.70782,2229.05606c-93.78782,0-141.19704-71.11384-141.19704-128.69546s43.28668-135.14718,141.19704-135.14718s127.7988,84.78,127.7988,135.14718-34.01098,128.69546-127.7988,128.69546Zm517.98395,770.94395c0-182.25397,147.74603-330,330-330s330,147.74603,330,330-147.74603,330-330,330-330-147.74603-330-330Zm1103.14496,671.77852c64.43595-.06463,103.31973,50.29239,103.31973,93.56724s-31.10702,106.43276-92.21006,106.43276-106.65267-40.93569-107.76364-93.56726s32.21801-106.36811,96.65397-106.43273v-.00001Z" fill="url(#eNIDmsztfZ64-fill)"/></g></svg>
