<?xml version="1.0" standalone="no"?>
<!DOCTYPE svg PUBLIC "-//W3C//DTD SVG 20010904//EN"
 "http://www.w3.org/TR/2001/REC-SVG-20010904/DTD/svg10.dtd">
<svg version="1.0" xmlns="http://www.w3.org/2000/svg"
 width="416.000000pt" height="416.000000pt" viewBox="0 0 416.000000 416.000000"
 preserveAspectRatio="xMidYMid meet">

<g transform="translate(0.000000,416.000000) scale(0.100000,-0.100000)"
fill="#000000" stroke="none">
<path d="M2940 3925 c0 -3 19 -14 41 -26 102 -51 262 -179 413 -327 246 -242
395 -481 500 -802 65 -200 90 -363 90 -590 0 -213 -22 -359 -81 -540 -72 -216
-237 -485 -389 -632 -146 -141 -370 -283 -584 -371 -99 -41 -322 -101 -434
-116 -115 -16 -404 -14 -515 4 -208 34 -456 136 -649 268 -263 178 -426 412
-493 707 -31 135 -36 389 -11 565 12 78 28 162 37 188 9 27 14 54 12 60 -8 24
-67 -88 -97 -183 -48 -158 -61 -227 -66 -380 -21 -549 259 -987 803 -1259 98
-49 197 -83 348 -119 100 -23 129 -26 315 -26 172 0 225 3 330 23 780 143
1303 558 1529 1214 69 202 109 478 96 677 -8 137 -41 344 -71 446 -81 281
-252 569 -467 787 -146 149 -312 270 -537 394 -49 27 -120 50 -120 38z"/>
<path d="M1850 3729 c-305 -26 -625 -115 -847 -234 -414 -224 -679 -520 -846
-945 -152 -385 -157 -885 -15 -1275 173 -471 485 -827 941 -1071 124 -67 191
-76 77 -11 -123 70 -267 187 -400 323 -186 190 -289 335 -385 537 -126 266
-187 541 -187 837 0 364 85 646 290 956 237 358 689 629 1167 700 156 23 481
15 617 -15 550 -121 939 -457 1064 -921 28 -102 29 -112 28 -345 0 -223 -2
-249 -27 -365 -15 -69 -27 -129 -27 -134 0 -12 33 33 47 64 6 14 21 46 32 71
63 136 96 376 80 577 -27 328 -142 574 -381 809 -186 183 -433 326 -670 387
-201 52 -383 70 -558 55z"/>
<path d="M1745 3340 c-369 -52 -704 -251 -927 -550 -141 -190 -235 -410 -278
-656 -21 -118 -24 -175 -11 -209 6 -15 10 -8 15 30 13 90 99 327 168 465 81
163 162 272 296 402 137 133 286 226 470 292 246 88 563 96 807 19 345 -108
625 -367 727 -673 30 -90 32 -103 32 -240 0 -129 -3 -155 -28 -234 -68 -223
-225 -439 -401 -552 -95 -60 -174 -91 -303 -118 -141 -30 -338 -35 -405 -12
-60 22 -44 -9 31 -60 108 -74 311 -123 457 -109 388 35 717 351 836 800 28
106 31 135 31 255 0 114 -4 150 -26 235 -61 225 -181 413 -365 572 -183 157
-388 264 -611 319 -88 21 -134 26 -280 29 -96 2 -202 0 -235 -5z"/>
<path d="M1725 2931 c-197 -32 -389 -144 -530 -308 -153 -179 -244 -384 -280
-631 -15 -98 -15 -117 0 -213 21 -145 48 -235 99 -337 120 -238 314 -425 586
-566 121 -62 214 -95 361 -127 135 -29 408 -31 534 -4 227 48 453 150 611 276
92 73 225 218 287 311 150 228 243 488 254 703 4 92 3 98 -11 81 -9 -11 -16
-29 -16 -40 0 -35 -85 -276 -132 -376 -234 -498 -645 -784 -1174 -816 -269
-16 -566 73 -779 236 -192 146 -318 311 -373 490 -96 315 -7 639 247 904 131
136 266 209 460 247 92 19 128 21 270 16 l164 -6 -28 29 c-36 37 -123 83 -210
109 -78 24 -255 36 -340 22z"/>
</g>
</svg>
